M48
METRIC,TZ
T1C0.300
T2C0.800
T3C1.000
T4C1.300
%
G90
G05
T1
X83947Y-100076
X86233Y-79375
X91948Y-92202
X92075Y-107950
X97790Y-79375
X98517Y-97190
X99822Y-100076
X108267Y-105093
X121793Y-84582
X122682Y-83312
X126492Y-105029
X127889Y-93599
X130937Y-93726
X131953Y-92583
X131953Y-96012
X132842Y-90805
X133350Y-129667
X133731Y-97028
X135128Y-100711
X135128Y-128143
X136525Y-77216
X136525Y-97028
X137414Y-86233
X138049Y-100838
X138176Y-90678
X138938Y-100076
X139065Y-94615
X139700Y-100838
X139827Y-95250
X139954Y-98298
X140462Y-80010
X140462Y-129667
X141732Y-80010
X141732Y-88773
X142494Y-90043
X142621Y-82423
X142875Y-96266
X144018Y-121031
X145034Y-97917
X145034Y-99187
X145161Y-95377
X145161Y-100076
X145669Y-91567
X146685Y-94742
X146685Y-126746
X146939Y-100711
X147066Y-89789
X147066Y-97917
X147955Y-102489
X148209Y-124206
X148463Y-128143
X149733Y-96266
X150114Y-85344
X150114Y-89154
X150114Y-92837
X150876Y-98806
X151003Y-100203
X151638Y-95250
X152400Y-98679
X152527Y-97028
X152654Y-101600
X153924Y-90805
X153924Y-93472
X154940Y-84963
X155321Y-90170
X156845Y-77724
X156845Y-82042
X156845Y-85344
X156845Y-91059
X156845Y-102870
X157099Y-121031
X157861Y-79883
X157861Y-82042
X157861Y-85344
X157861Y-91821
X158750Y-85344
X158750Y-92710
X159766Y-78613
X159766Y-82042
X159766Y-85344
X159766Y-93599
X159893Y-101219
X163830Y-78613
X168529Y-83185
X196596Y-105029
X204470Y-97155
X204470Y-112903
X212471Y-105029
T2
X138557Y-103251
X138557Y-105791
X138557Y-108331
X138557Y-110871
X138557Y-113411
X138557Y-115951
X138557Y-118491
X138557Y-121031
X146177Y-103251
X146177Y-105791
X146177Y-108331
X146177Y-110871
X146177Y-113411
X146177Y-115951
X146177Y-118491
X146177Y-121031
X151638Y-103251
X151638Y-105791
X151638Y-108331
X151638Y-110871
X151638Y-113411
X151638Y-115951
X151638Y-118491
X151638Y-121031
X159258Y-103251
X159258Y-105791
X159258Y-108331
X159258Y-110871
X159258Y-113411
X159258Y-115951
X159258Y-118491
X159258Y-121031
T3
X82169Y-87249
X84074Y-109601
X84582Y-123952
X84709Y-74962
X88265Y-123952
X89281Y-74962
X90551Y-100203
X91948Y-117602
X91948Y-123952
X95631Y-123952
X99949Y-109093
X106553Y-80645
X107188Y-123952
X194691Y-96901
X202311Y-89154
X204470Y-105029
X207053Y-75051
X210693Y-96901
X211625Y-75051
T4
X83058Y-73184
X90932Y-73184
X205402Y-73273
X213276Y-73273
M30
