G04 #@! TF.GenerationSoftware,KiCad,Pcbnew,8.0.5*
G04 #@! TF.CreationDate,2024-12-07T18:37:25-05:00*
G04 #@! TF.ProjectId,DS_to_SNES_Controller,44535f74-6f5f-4534-9e45-535f436f6e74,rev?*
G04 #@! TF.SameCoordinates,Original*
G04 #@! TF.FileFunction,Soldermask,Top*
G04 #@! TF.FilePolarity,Negative*
%FSLAX46Y46*%
G04 Gerber Fmt 4.6, Leading zero omitted, Abs format (unit mm)*
G04 Created by KiCad (PCBNEW 8.0.5) date 2024-12-07 18:37:25*
%MOMM*%
%LPD*%
G01*
G04 APERTURE LIST*
%ADD10R,1.700000X1.700000*%
%ADD11C,4.000000*%
%ADD12C,2.100000*%
%ADD13C,1.800000*%
%ADD14C,1.400000*%
%ADD15C,1.703200*%
%ADD16C,2.153200*%
%ADD17R,1.600000X1.600000*%
%ADD18O,1.600000X1.600000*%
G04 APERTURE END LIST*
D10*
X95631000Y-123952000D03*
X91948000Y-123952000D03*
D11*
X208566886Y-133646955D03*
D10*
X84582000Y-123952000D03*
D12*
X133453671Y-112117962D03*
D13*
X148131733Y-135587730D03*
D11*
X87684202Y-134545402D03*
D14*
X163933277Y-69477012D03*
D15*
X84708693Y-74962152D03*
X89280693Y-74962152D03*
D16*
X83057693Y-73184152D03*
X90931693Y-73184152D03*
D15*
X207053136Y-75051068D03*
X211625136Y-75051068D03*
D16*
X205402136Y-73273068D03*
X213276136Y-73273068D03*
D13*
X110135643Y-109091162D03*
D12*
X162821643Y-112117962D03*
D14*
X132375902Y-69477012D03*
D10*
X107188000Y-123952000D03*
D13*
X190538352Y-93658152D03*
D10*
X88265000Y-123952000D03*
X91948000Y-117602000D03*
X90551000Y-100203000D03*
X194691000Y-96901000D03*
X106553000Y-80645000D03*
X84074000Y-109601000D03*
X210693000Y-96901000D03*
X82169000Y-87249000D03*
X204470000Y-105029000D03*
X99949000Y-109093000D03*
D17*
X146177000Y-103251000D03*
D18*
X146177000Y-105791000D03*
X146177000Y-108331000D03*
X146177000Y-110871000D03*
X146177000Y-113411000D03*
X146177000Y-115951000D03*
X146177000Y-118491000D03*
X146177000Y-121031000D03*
X138557000Y-121031000D03*
X138557000Y-118491000D03*
X138557000Y-115951000D03*
X138557000Y-113411000D03*
X138557000Y-110871000D03*
X138557000Y-108331000D03*
X138557000Y-105791000D03*
X138557000Y-103251000D03*
D10*
X202311000Y-89154000D03*
D17*
X159258000Y-103251000D03*
D18*
X159258000Y-105791000D03*
X159258000Y-108331000D03*
X159258000Y-110871000D03*
X159258000Y-113411000D03*
X159258000Y-115951000D03*
X159258000Y-118491000D03*
X159258000Y-121031000D03*
X151638000Y-121031000D03*
X151638000Y-118491000D03*
X151638000Y-115951000D03*
X151638000Y-113411000D03*
X151638000Y-110871000D03*
X151638000Y-108331000D03*
X151638000Y-105791000D03*
X151638000Y-103251000D03*
M02*
