G04 #@! TF.GenerationSoftware,KiCad,Pcbnew,8.0.5*
G04 #@! TF.CreationDate,2024-12-07T18:37:25-05:00*
G04 #@! TF.ProjectId,DS_to_SNES_Controller,44535f74-6f5f-4534-9e45-535f436f6e74,rev?*
G04 #@! TF.SameCoordinates,Original*
G04 #@! TF.FileFunction,Profile,NP*
%FSLAX46Y46*%
G04 Gerber Fmt 4.6, Leading zero omitted, Abs format (unit mm)*
G04 Created by KiCad (PCBNEW 8.0.5) date 2024-12-07 18:37:25*
%MOMM*%
%LPD*%
G01*
G04 APERTURE LIST*
G04 #@! TA.AperFunction,Profile*
%ADD10C,0.050000*%
G04 #@! TD*
G04 APERTURE END LIST*
D10*
X213601252Y-70942380D02*
G75*
G02*
X215315485Y-72771183I-1103852J-2752520D01*
G01*
X188620093Y-143764180D02*
X195630493Y-143764180D01*
X82620019Y-70942380D02*
X118668493Y-70942380D01*
X77952293Y-96520180D02*
X78476202Y-96520180D01*
X77952293Y-83820180D02*
X78442211Y-83820180D01*
X150113693Y-141509271D02*
X150113693Y-143764180D01*
X146354493Y-141509271D02*
X146354493Y-143764180D01*
X187578693Y-113665180D02*
X195249493Y-113665180D01*
X217626892Y-137414180D02*
G75*
G02*
X211759497Y-143764209I-6854492J447780D01*
G01*
X170154293Y-66675180D02*
X170154293Y-66422687D01*
X86965477Y-85695180D02*
X88501493Y-85695180D01*
X217626893Y-97155180D02*
X217626893Y-79832380D01*
X149275493Y-66675180D02*
X170154293Y-66675180D01*
X195249493Y-124917380D02*
X197484693Y-124917380D01*
X86765974Y-89645180D02*
X88501493Y-89645180D01*
X209518714Y-85676537D02*
G75*
G02*
X209518688Y-89626474I-818114J-1974963D01*
G01*
X78739693Y-84201180D02*
X78739693Y-96139180D01*
X217626893Y-130606980D02*
X217626893Y-137414180D01*
X192074493Y-71577380D02*
G75*
G02*
X188061364Y-71297958I-1948693J970880D01*
G01*
X77952293Y-78790980D02*
X77952293Y-83820180D01*
X118973293Y-71958380D02*
X123392893Y-71958380D01*
X188061293Y-67201287D02*
X188061293Y-71297980D01*
X187070693Y-143764180D02*
G75*
G02*
X188620093Y-143764180I774700J-447274D01*
G01*
X187578693Y-129590980D02*
X187578693Y-113665180D01*
X195249493Y-113665180D02*
X195249493Y-124917380D01*
X187578693Y-129590980D02*
X197484693Y-129590980D01*
X187502493Y-66675180D02*
G75*
G02*
X188061220Y-67201289I16307J-542420D01*
G01*
X195630493Y-143764180D02*
G75*
G02*
X197179893Y-143764180I774700J-447274D01*
G01*
X147040293Y-66675180D02*
X147144433Y-67774999D01*
X219049293Y-97536180D02*
X219049293Y-130241009D01*
X217626893Y-130606980D02*
X218668293Y-130606980D01*
X197179893Y-143764180D02*
X211759493Y-143764180D01*
X88501493Y-85695180D02*
G75*
G02*
X88501507Y-89645214I-818093J-1975020D01*
G01*
X216890293Y-78943380D02*
G75*
G02*
X217626913Y-79832375I-584893J-1234320D01*
G01*
X207783196Y-89626537D02*
G75*
G02*
X207982727Y-85676616I917804J1933637D01*
G01*
X185292693Y-66675180D02*
X187502493Y-66675180D01*
X197484693Y-124917380D02*
X197484693Y-129590980D01*
X124688293Y-67386380D02*
X127177493Y-67386380D01*
X77952293Y-108534380D02*
X78455080Y-108534380D01*
X215315493Y-78943380D02*
X216890293Y-78943380D01*
X78455080Y-108534380D02*
G75*
G02*
X78739719Y-108915384I-48180J-332820D01*
G01*
X86765974Y-89645180D02*
G75*
G02*
X86965478Y-85695183I917826J1933680D01*
G01*
X84251492Y-143764180D02*
G75*
G02*
X78739691Y-137795180I1928808J7310380D01*
G01*
X170357493Y-66243380D02*
X185089493Y-66243380D01*
X149174155Y-67774999D02*
G75*
G02*
X147144445Y-67774999I-1014855J197899D01*
G01*
X78739693Y-108915380D02*
X78739693Y-137795180D01*
X192646396Y-70942380D02*
X213601252Y-70942380D01*
X207982699Y-85676537D02*
X209518714Y-85676537D01*
X78739693Y-96139181D02*
G75*
G02*
X78476202Y-96520178I-322293J-58719D01*
G01*
X78333293Y-78790980D02*
X81127293Y-76073180D01*
X77952293Y-96520180D02*
X77952293Y-108534380D01*
X127177493Y-66675180D02*
X127177493Y-67386380D01*
X185292693Y-66423077D02*
X185292693Y-66675180D01*
X77952293Y-78790980D02*
X78333293Y-78790980D01*
X192074485Y-71577380D02*
G75*
G02*
X192646396Y-70942381I603415J31580D01*
G01*
X123392893Y-69621580D02*
X124688293Y-67386380D01*
X170154293Y-66422687D02*
G75*
G02*
X170357482Y-66243345I293907J-128213D01*
G01*
X219049293Y-130241008D02*
G75*
G02*
X218668293Y-130606993I-373493J7508D01*
G01*
X81127293Y-72466380D02*
G75*
G02*
X82620018Y-70942293I1508407J15680D01*
G01*
X118973293Y-71958380D02*
X118922493Y-71247180D01*
X215315493Y-72771180D02*
X215315493Y-78943380D01*
X118668493Y-70942380D02*
X118922493Y-71247180D01*
X123392893Y-71958380D02*
X123392893Y-69621580D01*
X185089493Y-66243380D02*
G75*
G02*
X185292619Y-66423081I11707J-191420D01*
G01*
X78442211Y-83820180D02*
G75*
G02*
X78739711Y-84201182I-41711J-339220D01*
G01*
X149275493Y-66675180D02*
X149174155Y-67774999D01*
X218710302Y-97155180D02*
G75*
G02*
X219049321Y-97536182I-21002J-360020D01*
G01*
X84251493Y-143764180D02*
X146354493Y-143764180D01*
X150113693Y-143764180D02*
X187070693Y-143764180D01*
X127177493Y-66675180D02*
X147040293Y-66675180D01*
X217626893Y-97155180D02*
X218710302Y-97155180D01*
X207783196Y-89626537D02*
X209518714Y-89626537D01*
X146354493Y-141509271D02*
G75*
G02*
X150113703Y-141509266I1879607J-1316129D01*
G01*
X81127293Y-72466380D02*
X81127293Y-76073180D01*
M02*
