G04 #@! TF.GenerationSoftware,KiCad,Pcbnew,8.0.5*
G04 #@! TF.CreationDate,2024-12-07T18:37:25-05:00*
G04 #@! TF.ProjectId,DS_to_SNES_Controller,44535f74-6f5f-4534-9e45-535f436f6e74,rev?*
G04 #@! TF.SameCoordinates,Original*
G04 #@! TF.FileFunction,Soldermask,Bot*
G04 #@! TF.FilePolarity,Negative*
%FSLAX46Y46*%
G04 Gerber Fmt 4.6, Leading zero omitted, Abs format (unit mm)*
G04 Created by KiCad (PCBNEW 8.0.5) date 2024-12-07 18:37:25*
%MOMM*%
%LPD*%
G01*
G04 APERTURE LIST*
G04 Aperture macros list*
%AMRoundRect*
0 Rectangle with rounded corners*
0 $1 Rounding radius*
0 $2 $3 $4 $5 $6 $7 $8 $9 X,Y pos of 4 corners*
0 Add a 4 corners polygon primitive as box body*
4,1,4,$2,$3,$4,$5,$6,$7,$8,$9,$2,$3,0*
0 Add four circle primitives for the rounded corners*
1,1,$1+$1,$2,$3*
1,1,$1+$1,$4,$5*
1,1,$1+$1,$6,$7*
1,1,$1+$1,$8,$9*
0 Add four rect primitives between the rounded corners*
20,1,$1+$1,$2,$3,$4,$5,0*
20,1,$1+$1,$4,$5,$6,$7,0*
20,1,$1+$1,$6,$7,$8,$9,0*
20,1,$1+$1,$8,$9,$2,$3,0*%
G04 Aperture macros list end*
%ADD10R,1.700000X1.700000*%
%ADD11C,4.000000*%
%ADD12C,2.100000*%
%ADD13C,1.800000*%
%ADD14C,1.400000*%
%ADD15C,1.703200*%
%ADD16C,2.153200*%
%ADD17RoundRect,0.237500X-0.250000X-0.237500X0.250000X-0.237500X0.250000X0.237500X-0.250000X0.237500X0*%
%ADD18RoundRect,0.237500X0.380070X-0.044194X-0.044194X0.380070X-0.380070X0.044194X0.044194X-0.380070X0*%
%ADD19RoundRect,0.101600X-0.500000X-0.550000X0.500000X-0.550000X0.500000X0.550000X-0.500000X0.550000X0*%
%ADD20RoundRect,0.237500X0.237500X-0.300000X0.237500X0.300000X-0.237500X0.300000X-0.237500X-0.300000X0*%
%ADD21RoundRect,0.101600X0.500000X0.500000X-0.500000X0.500000X-0.500000X-0.500000X0.500000X-0.500000X0*%
%ADD22RoundRect,0.237500X0.300000X0.237500X-0.300000X0.237500X-0.300000X-0.237500X0.300000X-0.237500X0*%
%ADD23RoundRect,0.101600X0.500000X0.550000X-0.500000X0.550000X-0.500000X-0.550000X0.500000X-0.550000X0*%
%ADD24R,0.900000X0.900000*%
%ADD25RoundRect,0.150000X-1.100000X0.150000X-1.100000X-0.150000X1.100000X-0.150000X1.100000X0.150000X0*%
%ADD26R,1.600000X1.600000*%
%ADD27O,1.600000X1.600000*%
G04 APERTURE END LIST*
D10*
X95631000Y-123952000D03*
X91948000Y-123952000D03*
D11*
X208566886Y-133646955D03*
D10*
X84582000Y-123952000D03*
D12*
X133453671Y-112117962D03*
D13*
X148131733Y-135587730D03*
D11*
X87684202Y-134545402D03*
D14*
X163933277Y-69477012D03*
D15*
X84708693Y-74962152D03*
X89280693Y-74962152D03*
D16*
X83057693Y-73184152D03*
X90931693Y-73184152D03*
D15*
X207053136Y-75051068D03*
X211625136Y-75051068D03*
D16*
X205402136Y-73273068D03*
X213276136Y-73273068D03*
D13*
X110135643Y-109091162D03*
D12*
X162821643Y-112117962D03*
D14*
X132375902Y-69477012D03*
D10*
X107188000Y-123952000D03*
D13*
X190538352Y-93658152D03*
D10*
X88265000Y-123952000D03*
X91948000Y-117602000D03*
D17*
X129643500Y-126746000D03*
X131468500Y-126746000D03*
D18*
X148691880Y-100812880D03*
X147472120Y-99593120D03*
D19*
X209399293Y-105093155D03*
X209399293Y-100093155D03*
X215399293Y-100093155D03*
X215399293Y-105093155D03*
D20*
X142367000Y-78586501D03*
X142367000Y-76861499D03*
D21*
X99682580Y-79367852D03*
X99682580Y-83267852D03*
X95782580Y-83267852D03*
X95782580Y-79367852D03*
D10*
X90551000Y-100203000D03*
D18*
X149961880Y-99542880D03*
X148742120Y-98323120D03*
D22*
X136244500Y-101884000D03*
X134519500Y-101884000D03*
D23*
X94987764Y-92190315D03*
X94987764Y-97190315D03*
X88987764Y-97190315D03*
X88987764Y-92190315D03*
D24*
X143994000Y-95317000D03*
X143994000Y-96637000D03*
X143994000Y-97917000D03*
X143994000Y-99197000D03*
X143994000Y-100517000D03*
X140994000Y-100517000D03*
X140994000Y-99197000D03*
X140994000Y-97917000D03*
X140994000Y-96637000D03*
X140994000Y-95317000D03*
D23*
X86999758Y-100093155D03*
X86999758Y-105093155D03*
X80999758Y-105093155D03*
X80999758Y-100093155D03*
D21*
X88188486Y-79367852D03*
X88188486Y-83267852D03*
X84288486Y-83267852D03*
X84288486Y-79367852D03*
D24*
X156821000Y-95190000D03*
X156821000Y-96510000D03*
X156821000Y-97790000D03*
X156821000Y-99070000D03*
X156821000Y-100390000D03*
X153821000Y-100390000D03*
X153821000Y-99070000D03*
X153821000Y-97790000D03*
X153821000Y-96510000D03*
X153821000Y-95190000D03*
D19*
X193558121Y-105093155D03*
X193558121Y-100093155D03*
X199558121Y-100093155D03*
X199558121Y-105093155D03*
D10*
X194691000Y-96901000D03*
X106553000Y-80645000D03*
D20*
X140462002Y-78586501D03*
X140462002Y-76861499D03*
D10*
X84074000Y-109601000D03*
D22*
X136244500Y-103632000D03*
X134519500Y-103632000D03*
D10*
X210693000Y-96901000D03*
X82169000Y-87249000D03*
D19*
X201457074Y-97190315D03*
X201457074Y-92190315D03*
X207457074Y-92190315D03*
X207457074Y-97190315D03*
D23*
X102899099Y-100093155D03*
X102899099Y-105093155D03*
X96899099Y-105093155D03*
X96899099Y-100093155D03*
D17*
X121515500Y-129667000D03*
X123340500Y-129667000D03*
X125452500Y-128143000D03*
X127277500Y-128143000D03*
D25*
X152086000Y-78613000D03*
X152086000Y-79883000D03*
X152085999Y-81153000D03*
X152086000Y-82423000D03*
X152086000Y-83693000D03*
X152086000Y-84963000D03*
X152086000Y-86233000D03*
X152085999Y-87503000D03*
X152086000Y-88773000D03*
X152086000Y-90043000D03*
X144586000Y-90043000D03*
X144586000Y-88773000D03*
X144586001Y-87503000D03*
X144586000Y-86233000D03*
X144586000Y-84963000D03*
X144586000Y-83693000D03*
X144586000Y-82423000D03*
X144586001Y-81153000D03*
X144586000Y-79883000D03*
X144586000Y-78613000D03*
D10*
X204470000Y-105029000D03*
X99949000Y-109093000D03*
D26*
X146177000Y-103251000D03*
D27*
X146177000Y-105791000D03*
X146177000Y-108331000D03*
X146177000Y-110871000D03*
X146177000Y-113411000D03*
X146177000Y-115951000D03*
X146177000Y-118491000D03*
X146177000Y-121031000D03*
X138557000Y-121031000D03*
X138557000Y-118491000D03*
X138557000Y-115951000D03*
X138557000Y-113411000D03*
X138557000Y-110871000D03*
X138557000Y-108331000D03*
X138557000Y-105791000D03*
X138557000Y-103251000D03*
D23*
X94987764Y-107926680D03*
X94987764Y-112926680D03*
X88987764Y-112926680D03*
X88987764Y-107926680D03*
D19*
X201457074Y-112926680D03*
X201457074Y-107926680D03*
X207457074Y-107926680D03*
X207457074Y-112926680D03*
D10*
X202311000Y-89154000D03*
D26*
X159258000Y-103251000D03*
D27*
X159258000Y-105791000D03*
X159258000Y-108331000D03*
X159258000Y-110871000D03*
X159258000Y-113411000D03*
X159258000Y-115951000D03*
X159258000Y-118491000D03*
X159258000Y-121031000D03*
X151638000Y-121031000D03*
X151638000Y-118491000D03*
X151638000Y-115951000D03*
X151638000Y-113411000D03*
X151638000Y-110871000D03*
X151638000Y-108331000D03*
X151638000Y-105791000D03*
X151638000Y-103251000D03*
M02*
